<?xml version="1.0" encoding="UTF-8" standalone="no"?>
<!DOCTYPE svg PUBLIC "-//W3C//DTD SVG 1.1//EN" "http://www.w3.org/Graphics/SVG/1.1/DTD/svg11.dtd">
<svg width="100%" height="100%" viewBox="0 0 415 181" version="1.1" xmlns="http://www.w3.org/2000/svg" xmlns:xlink="http://www.w3.org/1999/xlink" xml:space="preserve" xmlns:serif="http://www.serif.com/" style="fill-rule:evenodd;clip-rule:evenodd;stroke-linejoin:round;stroke-miterlimit:2;">
    <g transform="matrix(1,0,0,1,-185.441,-294.319)">
        <g transform="matrix(1,0,0,1,-28.5469,78.3177)">
            <path d="M213.988,317.637L213.988,277.978L289.262,216.001L289.262,255.358L213.988,317.637Z" style="fill:rgb(0,213,250);"/>
        </g>
        <g transform="matrix(1,0,0,1,-28.5469,78.3177)">
            <path d="M295.658,295.677L220.171,358.188L220.171,396.723L295.193,335.314L295.658,295.677Z" style="fill:rgb(0,213,250);"/>
        </g>
        <g transform="matrix(1,0,0,1,-28.5469,78.3177)">
            <path d="M295.124,296.119L272.025,315.247L249.191,297.284L273.878,278.177L295.124,296.119ZM295.833,296.719L295.641,297.113L295.647,296.562L295.833,296.719Z" style="fill:rgb(0,213,250);"/>
        </g>
        <g transform="matrix(1,0,0,1,-28.5469,78.3177)">
            <path d="M294.993,296.009L295.124,296.119L272.025,315.247L264.292,309.163L294.993,296.009ZM295.833,296.719L295.641,297.113L295.647,296.562L295.833,296.719Z" style="fill:rgb(0,178,208);"/>
        </g>
        <g transform="matrix(1,0,0,1,-28.5469,78.3177)">
            <path d="M238.483,297.371L260.099,315.298L235.694,335.039L214.23,317.436L238.483,297.371Z" style="fill:rgb(0,213,250);"/>
        </g>
        <g transform="matrix(1,0,0,1,-28.5469,78.3177)">
            <path d="M244.775,302.589L216.477,315.577L238.483,297.371L244.775,302.589Z" style="fill:rgb(0,178,208);"/>
        </g>
        <g transform="matrix(18.6147,0,0,6.24861,-5617.87,-2325.68)">
            <path d="M317.732,437.908C317.503,437.908 317.312,437.811 317.161,437.616C317.009,437.421 316.895,437.167 316.817,436.852C316.739,436.538 316.697,436.203 316.693,435.848C316.693,435.793 316.7,435.743 316.715,435.699C316.73,435.655 316.748,435.632 316.769,435.632L317.202,435.632C317.234,435.632 317.259,435.649 317.276,435.684C317.293,435.718 317.309,435.762 317.323,435.817C317.341,435.919 317.367,436.019 317.4,436.114C317.433,436.21 317.477,436.287 317.532,436.345C317.587,436.403 317.654,436.432 317.732,436.432C317.865,436.432 317.965,436.37 318.033,436.247C318.101,436.124 318.135,435.957 318.135,435.745C318.135,435.588 318.116,435.462 318.08,435.366C318.043,435.27 317.984,435.183 317.902,435.105C317.821,435.026 317.713,434.946 317.577,434.864C317.403,434.754 317.254,434.613 317.132,434.438C317.009,434.264 316.915,434.035 316.851,433.751C316.787,433.468 316.755,433.114 316.755,432.691C316.755,432.274 316.794,431.901 316.874,431.573C316.953,431.245 317.063,430.989 317.206,430.805C317.348,430.62 317.516,430.528 317.711,430.528C317.87,430.528 318.009,430.589 318.129,430.712C318.25,430.835 318.351,430.999 318.434,431.204C318.517,431.409 318.579,431.626 318.621,431.855C318.664,432.084 318.686,432.308 318.689,432.527C318.689,432.581 318.682,432.631 318.67,432.675C318.657,432.72 318.639,432.742 318.616,432.742L318.162,432.742C318.137,432.742 318.115,432.728 318.097,432.701C318.078,432.673 318.062,432.629 318.049,432.568C318.035,432.417 317.999,432.286 317.94,432.173C317.882,432.06 317.805,432.004 317.711,432.004C317.61,432.004 317.532,432.057 317.476,432.163C317.419,432.269 317.391,432.431 317.391,432.65C317.391,432.786 317.407,432.906 317.438,433.008C317.469,433.111 317.52,433.2 317.593,433.275C317.665,433.35 317.764,433.429 317.89,433.511C318.099,433.627 318.268,433.772 318.396,433.946C318.525,434.12 318.619,434.346 318.68,434.623C318.741,434.9 318.771,435.246 318.771,435.663C318.771,436.128 318.726,436.528 318.637,436.862C318.547,437.197 318.425,437.455 318.271,437.636C318.116,437.817 317.936,437.908 317.732,437.908Z" style="fill:white;fill-rule:nonzero;"/>
        </g>
        <g transform="matrix(18.6147,0,0,6.24861,-5617.87,-2325.68)">
            <path d="M319.779,437.908C319.587,437.908 319.424,437.816 319.292,437.631C319.161,437.447 319.06,437.182 318.99,436.837C318.92,436.492 318.88,436.08 318.871,435.602C318.869,435.465 318.867,435.31 318.867,435.135C318.867,434.961 318.869,434.809 318.871,434.679C318.88,434.194 318.921,433.781 318.995,433.439C319.068,433.097 319.171,432.834 319.303,432.65C319.435,432.465 319.594,432.373 319.779,432.373C319.967,432.373 320.127,432.465 320.259,432.65C320.391,432.834 320.494,433.097 320.567,433.439C320.641,433.781 320.682,434.194 320.691,434.679C320.693,434.809 320.695,434.961 320.695,435.135C320.695,435.31 320.693,435.465 320.691,435.602C320.682,436.08 320.642,436.492 320.572,436.837C320.502,437.182 320.402,437.447 320.27,437.631C320.138,437.816 319.974,437.908 319.779,437.908ZM319.779,436.657C319.883,436.657 319.958,436.565 320.005,436.381C320.052,436.196 320.079,435.919 320.086,435.55C320.088,435.448 320.089,435.311 320.089,435.14C320.089,434.97 320.088,434.833 320.086,434.73C320.079,434.368 320.052,434.093 320.005,433.905C319.958,433.717 319.883,433.623 319.779,433.623C319.681,433.623 319.607,433.717 319.557,433.905C319.508,434.093 319.481,434.368 319.477,434.73C319.474,434.833 319.473,434.97 319.473,435.14C319.473,435.311 319.474,435.448 319.477,435.55C319.481,435.919 319.508,436.196 319.557,436.381C319.607,436.565 319.681,436.657 319.779,436.657Z" style="fill:white;fill-rule:nonzero;"/>
        </g>
        <g transform="matrix(18.6147,0,0,6.24861,-5617.87,-2325.68)">
            <path d="M321.713,437.908C321.543,437.908 321.393,437.816 321.262,437.631C321.132,437.447 321.028,437.179 320.951,436.827C320.874,436.475 320.832,436.053 320.825,435.561C320.823,435.451 320.822,435.313 320.822,435.146C320.822,434.978 320.823,434.84 320.825,434.73C320.832,434.232 320.874,433.806 320.949,433.454C321.025,433.102 321.129,432.834 321.261,432.65C321.392,432.465 321.543,432.373 321.713,432.373C321.871,432.373 322.007,432.439 322.121,432.573C322.234,432.706 322.326,432.872 322.396,433.07C322.466,433.268 322.519,433.471 322.554,433.68C322.59,433.888 322.609,434.071 322.611,434.228C322.613,434.296 322.605,434.356 322.587,434.407C322.569,434.459 322.548,434.484 322.525,434.484L322.088,434.484C322.063,434.484 322.043,434.467 322.03,434.433C322.016,434.399 322.003,434.348 321.992,434.279C321.964,434.068 321.929,433.917 321.887,433.828C321.844,433.74 321.79,433.695 321.723,433.695C321.632,433.695 321.561,433.784 321.512,433.962C321.462,434.139 321.436,434.413 321.431,434.782C321.429,435.055 321.429,435.298 321.431,435.509C321.438,435.885 321.465,436.159 321.514,436.329C321.562,436.5 321.632,436.586 321.723,436.586C321.795,436.586 321.851,436.54 321.892,436.447C321.933,436.355 321.967,436.206 321.992,436.001C322.003,435.933 322.016,435.882 322.03,435.848C322.043,435.814 322.063,435.796 322.088,435.796L322.525,435.796C322.548,435.796 322.569,435.82 322.587,435.868C322.605,435.916 322.613,435.978 322.611,436.053C322.609,436.162 322.597,436.295 322.577,436.452C322.556,436.61 322.524,436.774 322.48,436.944C322.437,437.115 322.38,437.272 322.31,437.416C322.24,437.559 322.156,437.677 322.057,437.77C321.959,437.862 321.844,437.908 321.713,437.908Z" style="fill:white;fill-rule:nonzero;"/>
        </g>
        <g transform="matrix(18.6147,0,0,6.24861,-5617.87,-2325.68)">
            <path d="M322.862,437.805C322.837,437.805 322.816,437.78 322.8,437.729C322.784,437.677 322.776,437.618 322.776,437.549L322.776,432.732C322.776,432.656 322.784,432.595 322.8,432.547C322.816,432.499 322.837,432.475 322.862,432.475L323.268,432.475C323.294,432.475 323.314,432.499 323.33,432.547C323.346,432.595 323.354,432.656 323.354,432.732L323.354,437.549C323.354,437.618 323.346,437.677 323.33,437.729C323.314,437.78 323.294,437.805 323.268,437.805L322.862,437.805ZM322.859,431.707C322.834,431.707 322.813,431.683 322.797,431.635C322.781,431.587 322.773,431.525 322.773,431.45L322.773,430.528C322.773,430.459 322.781,430.4 322.797,430.348C322.813,430.297 322.834,430.271 322.859,430.271L323.272,430.271C323.295,430.271 323.315,430.297 323.332,430.348C323.349,430.4 323.358,430.459 323.358,430.528L323.358,431.45C323.358,431.525 323.349,431.587 323.332,431.635C323.315,431.683 323.295,431.707 323.272,431.707L322.859,431.707Z" style="fill:white;fill-rule:nonzero;"/>
        </g>
        <g transform="matrix(18.6147,0,0,6.24861,-5617.87,-2325.68)">
            <path d="M324.462,437.908C324.27,437.908 324.107,437.816 323.975,437.631C323.844,437.447 323.743,437.182 323.673,436.837C323.603,436.492 323.563,436.08 323.554,435.602C323.552,435.465 323.55,435.31 323.55,435.135C323.55,434.961 323.552,434.809 323.554,434.679C323.563,434.194 323.604,433.781 323.678,433.439C323.751,433.097 323.854,432.834 323.986,432.65C324.118,432.465 324.276,432.373 324.462,432.373C324.65,432.373 324.81,432.465 324.942,432.65C325.074,432.834 325.177,433.097 325.25,433.439C325.324,433.781 325.365,434.194 325.374,434.679C325.376,434.809 325.378,434.961 325.378,435.135C325.378,435.31 325.376,435.465 325.374,435.602C325.365,436.08 325.325,436.492 325.255,436.837C325.185,437.182 325.085,437.447 324.953,437.631C324.821,437.816 324.657,437.908 324.462,437.908ZM324.462,436.657C324.566,436.657 324.641,436.565 324.688,436.381C324.735,436.196 324.762,435.919 324.769,435.55C324.771,435.448 324.772,435.311 324.772,435.14C324.772,434.97 324.771,434.833 324.769,434.73C324.762,434.368 324.735,434.093 324.688,433.905C324.641,433.717 324.566,433.623 324.462,433.623C324.364,433.623 324.29,433.717 324.24,433.905C324.191,434.093 324.164,434.368 324.16,434.73C324.157,434.833 324.156,434.97 324.156,435.14C324.156,435.311 324.157,435.448 324.16,435.55C324.164,435.919 324.191,436.196 324.24,436.381C324.29,436.565 324.364,436.657 324.462,436.657Z" style="fill:white;fill-rule:nonzero;"/>
        </g>
        <g transform="matrix(18.6147,0,0,6.24861,-5617.87,-2325.68)">
            <path d="M325.66,439.753C325.634,439.753 325.614,439.727 325.598,439.676C325.582,439.625 325.574,439.565 325.574,439.497L325.574,432.732C325.574,432.656 325.582,432.595 325.598,432.547C325.614,432.499 325.634,432.475 325.66,432.475L326.049,432.475C326.071,432.475 326.092,432.499 326.109,432.547C326.126,432.595 326.135,432.656 326.135,432.732L326.135,433.101C326.19,432.896 326.261,432.723 326.348,432.583C326.435,432.443 326.542,432.373 326.668,432.373C326.783,432.373 326.884,432.426 326.971,432.532C327.058,432.638 327.133,432.793 327.196,432.998C327.259,433.203 327.308,433.453 327.342,433.746C327.377,434.04 327.396,434.378 327.401,434.761C327.403,434.898 327.404,435.024 327.404,435.14C327.404,435.257 327.403,435.383 327.401,435.52C327.396,435.889 327.377,436.22 327.342,436.514C327.308,436.808 327.26,437.057 327.198,437.262C327.136,437.467 327.061,437.626 326.972,437.739C326.884,437.852 326.783,437.908 326.668,437.908C326.555,437.908 326.457,437.848 326.374,437.729C326.29,437.609 326.221,437.44 326.166,437.221L326.166,439.497C326.166,439.565 326.157,439.625 326.141,439.676C326.125,439.727 326.105,439.753 326.08,439.753L325.66,439.753ZM326.482,436.534C326.56,436.534 326.621,436.487 326.664,436.391C326.708,436.295 326.74,436.165 326.759,436.001C326.779,435.837 326.791,435.656 326.795,435.458C326.8,435.246 326.8,435.034 326.795,434.823C326.791,434.624 326.779,434.443 326.759,434.279C326.74,434.115 326.708,433.986 326.664,433.89C326.621,433.794 326.56,433.746 326.482,433.746C326.409,433.746 326.349,433.796 326.303,433.895C326.257,433.994 326.224,434.122 326.203,434.279C326.183,434.437 326.17,434.607 326.166,434.792C326.163,434.922 326.162,435.048 326.162,435.171C326.162,435.294 326.163,435.424 326.166,435.561C326.168,435.732 326.18,435.89 326.203,436.037C326.226,436.184 326.261,436.304 326.307,436.396C326.352,436.488 326.411,436.534 326.482,436.534Z" style="fill:white;fill-rule:nonzero;"/>
        </g>
        <g transform="matrix(18.6147,0,0,6.24861,-5617.87,-2325.68)">
            <path d="M328.426,437.908C328.155,437.908 327.94,437.689 327.779,437.252C327.619,436.815 327.535,436.165 327.528,435.304L327.528,434.946C327.535,434.406 327.576,433.943 327.65,433.557C327.725,433.171 327.828,432.877 327.96,432.675C328.092,432.474 328.246,432.373 328.423,432.373C328.625,432.373 328.791,432.492 328.923,432.732C329.055,432.971 329.154,433.295 329.221,433.705C329.288,434.115 329.321,434.583 329.321,435.11L329.321,435.356C329.321,435.431 329.313,435.492 329.297,435.54C329.281,435.588 329.26,435.612 329.235,435.612L328.134,435.612L328.134,435.684C328.136,435.882 328.148,436.063 328.17,436.227C328.192,436.391 328.224,436.521 328.266,436.616C328.309,436.712 328.361,436.76 328.423,436.76C328.469,436.76 328.507,436.738 328.538,436.693C328.569,436.649 328.595,436.598 328.615,436.54C328.636,436.481 328.652,436.432 328.664,436.391C328.684,436.316 328.701,436.27 328.713,436.253C328.726,436.235 328.746,436.227 328.774,436.227L329.2,436.227C329.223,436.227 329.242,436.247 329.257,436.288C329.272,436.329 329.278,436.384 329.276,436.452C329.274,436.569 329.254,436.709 329.218,436.873C329.181,437.037 329.128,437.199 329.058,437.36C328.988,437.52 328.9,437.652 328.794,437.754C328.689,437.857 328.566,437.908 328.426,437.908ZM328.134,434.597L328.715,434.597L328.715,434.577C328.715,434.351 328.704,434.158 328.683,433.997C328.661,433.837 328.627,433.712 328.583,433.623C328.538,433.535 328.485,433.49 328.423,433.49C328.363,433.49 328.311,433.535 328.268,433.623C328.224,433.712 328.191,433.837 328.168,433.997C328.145,434.158 328.134,434.351 328.134,434.577L328.134,434.597Z" style="fill:white;fill-rule:nonzero;"/>
        </g>
        <g transform="matrix(18.6147,0,0,6.24861,-5617.87,-2325.68)">
            <path d="M330.167,437.908C330.057,437.908 329.958,437.855 329.87,437.749C329.781,437.643 329.706,437.486 329.642,437.278C329.579,437.069 329.531,436.816 329.496,436.519C329.462,436.222 329.442,435.882 329.438,435.499C329.435,435.362 329.434,435.241 329.434,435.135C329.434,435.029 329.435,434.908 329.438,434.771C329.442,434.409 329.462,434.079 329.496,433.782C329.531,433.485 329.579,433.232 329.641,433.024C329.703,432.815 329.778,432.655 329.868,432.542C329.957,432.429 330.057,432.373 330.167,432.373C330.282,432.373 330.381,432.429 330.463,432.542C330.546,432.655 330.616,432.8 330.673,432.978L330.673,430.784C330.673,430.709 330.681,430.647 330.697,430.6C330.713,430.552 330.734,430.528 330.759,430.528L331.179,430.528C331.202,430.528 331.222,430.552 331.239,430.6C331.256,430.647 331.265,430.709 331.265,430.784L331.265,437.549C331.265,437.618 331.256,437.677 331.239,437.729C331.222,437.78 331.202,437.805 331.179,437.805L330.79,437.805C330.765,437.805 330.744,437.78 330.728,437.729C330.712,437.677 330.704,437.618 330.704,437.549L330.704,437.221C330.649,437.419 330.578,437.583 330.491,437.713C330.403,437.843 330.296,437.908 330.167,437.908ZM330.356,436.534C330.432,436.534 330.492,436.485 330.537,436.386C330.582,436.287 330.615,436.159 330.637,436.001C330.659,435.844 330.671,435.673 330.673,435.489C330.675,435.352 330.676,435.222 330.676,435.099C330.676,434.976 330.675,434.85 330.673,434.72C330.671,434.549 330.658,434.39 330.635,434.243C330.612,434.097 330.578,433.977 330.532,433.885C330.486,433.792 330.428,433.746 330.356,433.746C330.281,433.746 330.221,433.794 330.176,433.89C330.131,433.986 330.099,434.115 330.079,434.279C330.06,434.443 330.048,434.624 330.043,434.823C330.036,435.034 330.036,435.246 330.043,435.458C330.048,435.656 330.06,435.837 330.079,436.001C330.099,436.165 330.131,436.295 330.176,436.391C330.221,436.487 330.281,436.534 330.356,436.534Z" style="fill:white;fill-rule:nonzero;"/>
        </g>
        <g transform="matrix(18.6147,0,0,6.24861,-5617.87,-2325.68)">
            <path d="M331.612,437.805C331.587,437.805 331.567,437.78 331.55,437.729C331.534,437.677 331.526,437.618 331.526,437.549L331.526,432.732C331.526,432.656 331.534,432.595 331.55,432.547C331.567,432.499 331.587,432.475 331.612,432.475L332.018,432.475C332.044,432.475 332.064,432.499 332.08,432.547C332.096,432.595 332.104,432.656 332.104,432.732L332.104,437.549C332.104,437.618 332.096,437.677 332.08,437.729C332.064,437.78 332.044,437.805 332.018,437.805L331.612,437.805ZM331.609,431.707C331.584,431.707 331.563,431.683 331.547,431.635C331.531,431.587 331.523,431.525 331.523,431.45L331.523,430.528C331.523,430.459 331.531,430.4 331.547,430.348C331.563,430.297 331.584,430.271 331.609,430.271L332.022,430.271C332.045,430.271 332.065,430.297 332.082,430.348C332.099,430.4 332.108,430.459 332.108,430.528L332.108,431.45C332.108,431.525 332.099,431.587 332.082,431.635C332.065,431.683 332.045,431.707 332.022,431.707L331.609,431.707Z" style="fill:white;fill-rule:nonzero;"/>
        </g>
        <g transform="matrix(18.6147,0,0,6.24861,-5617.87,-2325.68)">
            <path d="M332.903,437.908C332.779,437.908 332.668,437.838 332.571,437.698C332.473,437.558 332.396,437.368 332.338,437.129C332.281,436.89 332.252,436.62 332.252,436.319C332.252,435.834 332.319,435.45 332.452,435.166C332.585,434.882 332.762,434.689 332.982,434.587L333.412,434.392L333.412,434.249C333.412,434.003 333.395,433.815 333.36,433.685C333.326,433.555 333.263,433.49 333.171,433.49C333.107,433.49 333.055,433.528 333.015,433.603C332.974,433.678 332.943,433.781 332.92,433.91C332.899,433.999 332.871,434.044 332.834,434.044L332.449,434.044C332.423,434.044 332.404,434.021 332.39,433.977C332.376,433.933 332.371,433.88 332.373,433.818C332.373,433.695 332.388,433.553 332.419,433.393C332.45,433.232 332.498,433.073 332.562,432.916C332.626,432.759 332.709,432.629 332.81,432.527C332.911,432.424 333.033,432.373 333.178,432.373C333.325,432.373 333.451,432.424 333.556,432.527C333.662,432.629 333.748,432.773 333.815,432.957C333.881,433.142 333.93,433.359 333.961,433.608C333.992,433.857 334.007,434.132 334.007,434.433L334.007,437.549C334.007,437.618 333.999,437.677 333.981,437.729C333.964,437.78 333.944,437.805 333.921,437.805L333.522,437.805C333.497,437.805 333.476,437.78 333.46,437.729C333.444,437.677 333.436,437.618 333.436,437.549L333.436,437.19C333.406,437.32 333.366,437.44 333.316,437.549C333.265,437.659 333.206,437.746 333.138,437.811C333.071,437.876 332.992,437.908 332.903,437.908ZM333.064,436.739C333.131,436.739 333.191,436.697 333.245,436.611C333.299,436.526 333.341,436.393 333.372,436.212C333.403,436.03 333.419,435.803 333.419,435.53L333.419,435.386L333.126,435.54C333.019,435.595 332.94,435.679 332.891,435.791C332.841,435.904 332.817,436.036 332.817,436.186C332.817,436.302 332.828,436.401 332.851,436.483C332.874,436.565 332.904,436.628 332.942,436.673C332.98,436.717 333.021,436.739 333.064,436.739Z" style="fill:white;fill-rule:nonzero;"/>
        </g>
    </g>
</svg>
